<svg xmlns="http://www.w3.org/2000/svg" width="23.631" height="20" viewBox="0 0 23.631 20">
  <g id="Icon-logout-23x20" transform="translate(-3.375 -5.625)">
    <path id="Path_211" data-name="Path 211" d="M18.391,22.216a.8.8,0,0,0-.8.8,1.026,1.026,0,0,1-1.024,1.023H5.991a1.026,1.026,0,0,1-1.024-1.023V8.239A1.026,1.026,0,0,1,5.991,7.216h10.58a1.026,1.026,0,0,1,1.024,1.023.8.8,0,0,0,1.593,0,2.615,2.615,0,0,0-2.616-2.614H5.991A2.615,2.615,0,0,0,3.375,8.239V23.011a2.615,2.615,0,0,0,2.616,2.614h10.58a2.615,2.615,0,0,0,2.616-2.614A.8.8,0,0,0,18.391,22.216Z"/>
    <path id="Path_212" data-name="Path 212" d="M23.2,11.061a.792.792,0,0,0-.563-.233.779.779,0,0,0-.563.233.791.791,0,0,0,0,1.124l3.709,3.645H11.2a.795.795,0,1,0,0,1.59H25.8L22.18,21.059a.8.8,0,0,0,0,1.124l.006.006a.823.823,0,0,0,.557.221.769.769,0,0,0,.563-.233L28,17.5a1.114,1.114,0,0,0,0-1.658Z" transform="translate(-1.369 -0.994)"/>
  </g>
</svg>
