<svg width="15" height="14" viewBox="0 0 15 14" fill="none" xmlns="http://www.w3.org/2000/svg">
  <g opacity="0.85">
    <path fill-rule="evenodd" clip-rule="evenodd" d="M4.3401 3.2901C3.78587 3.83616 3.36221 4.50041 3.10078 5.23321C2.83934 5.96601 2.74688 6.74842 2.83031 7.52198C2.83808 7.62588 2.80508 7.72873 2.73832 7.80873C2.67155 7.88873 2.57627 7.93959 2.47265 7.95053C2.36902 7.96148 2.26521 7.93165 2.18321 7.86737C2.1012 7.80309 2.04745 7.7094 2.03333 7.60616C1.9371 6.71272 2.04396 5.80908 2.34593 4.96272C2.6479 4.11636 3.13718 3.34916 3.77723 2.71842C6.13211 0.395616 9.93102 0.433301 12.2618 2.79699C14.5927 5.15989 14.5774 8.95879 12.2217 11.2816C11.1314 12.3588 9.66754 12.974 8.13499 12.999C7.55558 13.0094 6.9777 12.9362 6.41915 12.7818C6.31665 12.7535 6.22959 12.6856 6.17711 12.5932C6.12463 12.5007 6.11104 12.3911 6.13932 12.2887C6.16761 12.1862 6.23545 12.0991 6.32792 12.0466C6.4204 11.9941 6.52993 11.9805 6.63243 12.0088C7.11685 12.1428 7.61804 12.2063 8.12056 12.1972C9.44746 12.1761 10.715 11.6435 11.6589 10.7107C13.6962 8.70142 13.7131 5.41085 11.691 3.35985C9.66883 1.30886 6.37746 1.2808 4.3401 3.2901Z" fill="white" stroke="white" stroke-width="0.25"/>
    <path fill-rule="evenodd" clip-rule="evenodd" d="M2.72888 8.03125C2.69382 8.07053 2.65136 8.10251 2.60394 8.12538C2.55652 8.14825 2.50505 8.16155 2.45249 8.16453C2.39993 8.16751 2.34729 8.1601 2.29759 8.14274C2.24788 8.12537 2.20209 8.09839 2.16281 8.06332L0.783725 6.83657C0.741331 6.80254 0.706301 6.76024 0.680766 6.71225C0.65523 6.66426 0.639723 6.61157 0.635187 6.5574C0.630651 6.50322 0.637181 6.44869 0.654379 6.39712C0.671577 6.34555 0.699085 6.29801 0.735229 6.2574C0.771374 6.2168 0.8154 6.18396 0.86463 6.1609C0.913861 6.13784 0.967268 6.12503 1.0216 6.12326C1.07594 6.12149 1.13007 6.13078 1.1807 6.15058C1.23133 6.17038 1.2774 6.20027 1.31612 6.23843L2.69521 7.46518C2.73459 7.50013 2.76671 7.5425 2.78972 7.58987C2.81273 7.63724 2.82619 7.68867 2.82931 7.74124C2.83244 7.79381 2.82518 7.84647 2.80795 7.89624C2.79072 7.946 2.76385 7.99187 2.72888 8.03125Z" fill="white" stroke="white" stroke-width="0.25"/>
    <path fill-rule="evenodd" clip-rule="evenodd" d="M2.1085 7.98058C2.14009 8.02269 2.17966 8.05818 2.22496 8.085C2.27027 8.11182 2.32041 8.12946 2.37252 8.13691C2.42464 8.14435 2.47772 8.14146 2.52872 8.12839C2.57971 8.11533 2.62764 8.09234 2.66976 8.06076L4.27335 6.85806C4.35841 6.79427 4.41464 6.6993 4.42968 6.59404C4.44472 6.48878 4.41732 6.38187 4.35353 6.29681C4.28973 6.21175 4.19476 6.15551 4.08951 6.14048C3.98425 6.12544 3.87733 6.15283 3.79227 6.21663L2.18868 7.41932C2.10362 7.48312 2.04739 7.57809 2.03235 7.68334C2.01731 7.7886 2.04471 7.89552 2.1085 7.98058ZM7.86539 4.13196C7.97172 4.13196 8.07369 4.1742 8.14887 4.24938C8.22405 4.32456 8.26629 4.42653 8.26629 4.53286V7.33914C8.26629 7.44547 8.22405 7.54744 8.14887 7.62262C8.07369 7.6978 7.97172 7.74004 7.86539 7.74004C7.75907 7.74004 7.6571 7.6978 7.58192 7.62262C7.50673 7.54744 7.4645 7.44547 7.4645 7.33914V4.53286C7.4645 4.42653 7.50673 4.32456 7.58192 4.24938C7.6571 4.1742 7.75907 4.13196 7.86539 4.13196Z" fill="white" stroke="white" stroke-width="0.25"/>
    <path fill-rule="evenodd" clip-rule="evenodd" d="M10.841 7.4009C10.841 7.50722 10.7987 7.60919 10.7236 7.68438C10.6484 7.75956 10.5464 7.8018 10.4401 7.8018H8.03469C7.92836 7.8018 7.82639 7.75956 7.75121 7.68438C7.67603 7.60919 7.63379 7.50722 7.63379 7.4009C7.63379 7.29457 7.67603 7.1926 7.75121 7.11742C7.82639 7.04224 7.92836 7 8.03469 7H10.4401C10.5464 7 10.6484 7.04224 10.7236 7.11742C10.7987 7.1926 10.841 7.29457 10.841 7.4009Z" fill="white" stroke="white" stroke-width="0.25"/>
  </g>
</svg>
