<svg xmlns="http://www.w3.org/2000/svg" xmlns:xlink="http://www.w3.org/1999/xlink" width="92.839" height="92.839" viewBox="0 0 92.839 92.839">
  <defs>
    <filter id="Icon-coins-62x62" x="0" y="0" width="92.839" height="92.839" filterUnits="userSpaceOnUse">
      <feOffset dy="3" input="SourceAlpha"/>
      <feGaussianBlur stdDeviation="5" result="blur"/>
      <feFlood flood-color="#2ff7f7" flood-opacity="0.302"/>
      <feComposite operator="in" in2="blur"/>
      <feComposite in="SourceGraphic"/>
    </filter>
  </defs>
  <g transform="matrix(1, 0, 0, 1, 0, 0)" filter="url(#Icon-coins-62x62)">
    <path id="Icon-coins-62x62-2" data-name="Icon-coins-62x62" d="M0,49.743v5.241c0,4.332,10.555,7.855,23.565,7.855s23.565-3.522,23.565-7.855V49.743c-5.069,3.572-14.335,5.241-23.565,5.241S5.069,53.315,0,49.743ZM39.274,15.71c13.01,0,23.565-3.522,23.565-7.855S52.284,0,39.274,0,15.71,3.522,15.71,7.855,26.265,15.71,39.274,15.71ZM0,36.869V43.2c0,4.332,10.555,7.855,23.565,7.855S47.129,47.534,47.129,43.2V36.869C42.06,41.042,32.782,43.2,23.565,43.2S5.069,41.042,0,36.869Zm51.057,1.35c7.033-1.362,11.782-3.891,11.782-6.8V26.179c-2.847,2.013-7.033,3.387-11.782,4.234ZM23.565,19.637C10.555,19.637,0,24.031,0,29.456s10.555,9.819,23.565,9.819,23.565-4.394,23.565-9.819S36.574,19.637,23.565,19.637Zm26.915,6.91c7.364-1.326,12.359-3.927,12.359-6.91V14.4C58.482,17.477,51,19.134,43.116,19.527,46.736,21.282,49.4,23.638,50.48,26.547Z" transform="translate(15 12)" fill="#fff"/>
  </g>
</svg>
