<svg xmlns="http://www.w3.org/2000/svg" width="16.364" height="20" viewBox="0 0 16.364 20">
  <path id="Icon_material-cake" data-name="Icon material-cake" d="M12.682,5.455A1.818,1.818,0,0,0,14.5,3.636a1.73,1.73,0,0,0-.264-.936L12.682,0,11.127,2.7a1.73,1.73,0,0,0-.264.936A1.824,1.824,0,0,0,12.682,5.455Zm4.182,9.082-.973-.973-.982.973a3.221,3.221,0,0,1-4.445,0l-.973-.973-.991.973a3.122,3.122,0,0,1-2.218.918A3.159,3.159,0,0,1,4.5,14.9v4.191A.912.912,0,0,0,5.409,20H19.955a.912.912,0,0,0,.909-.909V14.9a3.159,3.159,0,0,1-1.782.555A3.122,3.122,0,0,1,16.864,14.536Zm1.273-6.355H13.591V6.364H11.773V8.182H7.227A2.724,2.724,0,0,0,4.5,10.909v1.4a1.785,1.785,0,0,0,1.782,1.782,1.745,1.745,0,0,0,1.255-.518l1.945-1.936,1.936,1.936a1.823,1.823,0,0,0,2.518,0l1.945-1.936,1.936,1.936a1.76,1.76,0,0,0,1.255.518,1.785,1.785,0,0,0,1.782-1.782v-1.4A2.71,2.71,0,0,0,18.136,8.182Z" transform="translate(-4.5)" fill="#fff"/>
</svg>
