<svg xmlns="http://www.w3.org/2000/svg" width="24" height="24" viewBox="0 0 24 24">
  <g id="Icon-add-24x24" transform="translate(-3.375 -3.375)">
    <path id="Path_213" data-name="Path 213" d="M19.508,14.644h-3.4v-3.4a.731.731,0,1,0-1.461,0v3.4h-3.4a.7.7,0,0,0-.731.731.707.707,0,0,0,.731.731h3.4v3.4a.708.708,0,0,0,.731.731.727.727,0,0,0,.731-.731v-3.4h3.4a.731.731,0,1,0,0-1.461Z"/>
    <path id="Path_214" data-name="Path 214" d="M15.375,4.99a10.381,10.381,0,1,1-7.344,3.04,10.316,10.316,0,0,1,7.344-3.04m0-1.615a12,12,0,1,0,12,12,12,12,0,0,0-12-12Z"/>
  </g>
</svg>
