<svg width="36" height="47" viewBox="0 0 36 47" fill="none" xmlns="http://www.w3.org/2000/svg">
  <path d="M18.5 41.6559L18.5 41.1559L18 41.1559C8.33115 41.1559 0.500009 33.3248 0.50001 23.6559C0.50001 21.3801 0.937651 19.1941 1.74569 17.2068L1.74627 17.2053C2.22158 16.0259 3.72823 15.7163 4.61895 16.607C5.10342 17.0915 5.27742 17.803 5.0287 18.4006C4.3491 20.0179 4.00001 21.8164 4.00001 23.6559C4.00001 31.3796 10.2764 37.6559 18 37.6559L18.5 37.6559L18.5 37.1559L18.5 33.1284C18.5 32.5721 19.1719 32.2792 19.5846 32.6751L25.8589 38.9495C26.1136 39.2042 26.1137 39.5849 25.8592 39.8397C25.8591 39.8397 25.859 39.8398 25.8589 39.8399L19.5596 46.1168L19.5595 46.1167L19.5534 46.123C19.1739 46.5147 18.5 46.2545 18.5 45.6834L18.5 41.6559ZM18 9.65594L17.5 9.65594L17.5 10.1559L17.5 14.1834L17.5 14.1864C17.5007 14.3098 17.4649 14.4306 17.3971 14.5337C17.3292 14.6368 17.2324 14.7174 17.1188 14.7656C17.0051 14.8137 16.8798 14.8271 16.7586 14.8041C16.6381 14.7813 16.527 14.7234 16.4391 14.6379C16.4386 14.6374 16.438 14.6369 16.4375 14.6364L10.1636 8.36239C9.90882 8.10765 9.90882 7.72673 10.1636 7.472L16.4411 1.1945L16.4411 1.19455L16.4466 1.18884C16.8261 0.79714 17.5 1.05742 17.5 1.62844L17.5 5.65594L17.5 6.15594L18 6.15594C27.6689 6.15594 35.5 13.9871 35.5 23.6559C35.5 25.9318 35.0624 28.1178 34.2543 30.1051L34.2537 30.1066C33.7784 31.286 32.2718 31.5956 31.3811 30.7049C30.8966 30.2204 30.7226 29.5089 30.9713 28.9113C31.6509 27.294 32 25.4955 32 23.6559C32 15.9323 25.7236 9.65594 18 9.65594Z" fill="#2FF7F7" stroke="#1E1E1E"/>
</svg>
